<?xml version="1.0" encoding="UTF-8"?><svg id="Layer_1" xmlns="http://www.w3.org/2000/svg" viewBox="0 0 32 32"><defs><style>.cls-1{fill:#7f3f98;}.cls-2{fill:#27aae1;}</style></defs><path class="cls-1" d="M8.01,27c0-.07-.01-.14-.01-.21v-8.84c0-4.03,2.85-7.65,6.84-8.23,4.94-.71,9.16,3.2,9.16,8.13v8.94c0,.07,0,.14-.01.21h6.95c.03-.38.06-.76.06-1.15v-7.63c0-8.01-6.49-14.5-14.5-14.5h0c-8.01,0-14.5,6.49-14.5,14.5v7.63c0,.39.03.77.06,1.15h5.95Z"/><rect class="cls-2" x="12.68" y="15.68" width="6.63" height="6.63"/></svg>